<?xml version='1.0' encoding='iso-8859-1'?>
<svg version="1.1" xmlns="http://www.w3.org/2000/svg" viewBox="0 0 282.295 282.295" xmlns:xlink="http://www.w3.org/1999/xlink" enable-background="new 0 0 282.295 282.295">
  <g>
    <circle cx="74.373" cy="129.148" r="12"/>
    <path d="m262.896,141.148c0.105-0.104 0.21-0.207 0.313-0.312 21.338-21.337 25.356-50.748 9.148-66.955-16.209-16.208-45.618-12.19-66.955,9.148-4.082,4.082-7.624,8.595-10.525,13.331-21.986-14.269-50.829-27.509-82.175-27.509-31.977,0-59.43,6.404-79.392,18.521-21.479,13.041-33.31,32.139-33.31,53.776 0,21.633 12.486,40.785 35.158,53.929 20.727,12.016 48.637,18.367 80.715,18.367 34.993,0 61.915-10.852 81.518-23.669 2.356,3.33 5.036,6.515 8.012,9.492 12.527,12.527 27.836,19.085 41.623,19.085 9.696,0 18.64-3.244 25.332-9.937 16.208-16.207 12.189-45.618-9.148-66.955-0.104-0.105-0.208-0.209-0.314-0.312zm-212.692,27.974c-9.217-5.343-20.204-14.534-20.204-27.974 0-24.903 34.009-42.296 82.704-42.296 39.767,0 76.812,29.019 93.175,43.88-3.925,4.59-9.52,10.361-16.829,16.072-20.927,16.35-45.547,24.64-73.177,24.64-26.417-0.001-49.739-5.087-65.669-14.322zm200.942,18.079c-1.156,1.155-4.069,1.47-7.429,0.797-5.684-1.137-11.917-4.762-17.101-9.945-1.754-1.754-3.341-3.637-4.72-5.584 5.933-5.584 10.507-10.858 13.764-15.008 2.229,1.482 4.354,3.229 6.337,5.211 10.281,10.281 11.789,21.889 9.149,24.529zm-9.149-67.578c-2.261,2.261-4.705,4.213-7.285,5.82-3.396-3.45-8.261-8.127-14.351-13.276 1.685-2.772 3.808-5.478 6.255-7.925 5.184-5.184 11.417-8.809 17.101-9.945 3.359-0.673 6.272-0.358 7.429,0.797 2.64,2.64 1.132,14.248-9.149,24.529z"/>
  </g>
</svg>
