<?xml version="1.0" standalone="no"?>
<!DOCTYPE svg PUBLIC "-//W3C//DTD SVG 20010904//EN"
 "http://www.w3.org/TR/2001/REC-SVG-20010904/DTD/svg10.dtd">
<svg version="1.0" xmlns="http://www.w3.org/2000/svg"
 width="1080.000000pt" height="1136.000000pt" viewBox="0 0 1080.000000 1136.000000"
 preserveAspectRatio="xMidYMid meet">
<metadata>
Created by potrace 1.16, written by Peter Selinger 2001-2019
</metadata>
<g transform="translate(0.000000,1136.000000) scale(0.100000,-0.100000)"
fill="#000000" stroke="none">
<path d="M3506 8291 c-6 -10 0 -28 39 -116 12 -27 26 -65 29 -82 4 -18 12 -33
17 -33 5 0 9 -13 9 -30 0 -16 5 -30 10 -30 6 0 10 -9 10 -20 0 -11 5 -20 10
-20 6 0 10 -8 10 -19 0 -10 7 -36 16 -57 29 -70 46 -109 55 -126 5 -10 9 -28
9 -40 0 -13 7 -32 15 -42 8 -11 15 -30 15 -43 0 -13 5 -23 10 -23 6 0 10 -9
10 -20 0 -11 5 -30 12 -43 24 -48 28 -57 28 -77 0 -11 5 -29 10 -40 6 -11 15
-29 20 -40 6 -11 10 -29 10 -39 0 -11 5 -23 10 -26 6 -3 10 -15 10 -26 0 -17
34 -132 63 -212 11 -30 16 -30 97 5 25 11 54 24 65 28 11 4 43 18 70 31 28 12
53 22 58 21 4 -1 7 3 7 9 0 5 5 7 11 3 6 -3 21 -2 32 4 35 18 178 72 188 72 5
0 28 9 52 19 23 10 87 33 142 51 55 18 132 43 170 56 39 12 131 39 205 59 74
21 164 45 200 55 36 10 85 21 110 25 25 4 70 13 100 21 31 8 87 18 125 24 39
5 113 17 165 25 52 8 98 14 103 15 58 2 -214 148 -438 235 -66 25 -129 50
-140 55 -11 5 -40 15 -65 21 -25 7 -49 16 -55 20 -5 4 -39 15 -75 24 -36 10
-69 22 -75 26 -5 5 -18 9 -30 9 -11 1 -38 8 -60 16 -22 8 -67 21 -100 29 -107
25 -189 46 -243 61 -49 14 -98 24 -192 40 -19 4 -42 10 -50 14 -8 4 -40 11
-70 15 -30 3 -70 11 -88 17 -18 5 -36 7 -39 4 -4 -3 -11 -2 -17 3 -6 5 -32 12
-58 15 -26 4 -69 11 -95 16 -70 15 -176 31 -316 49 -44 6 -87 13 -97 16 -10 3
-21 1 -24 -4z"/>
<path d="M5920 7161 c-19 -5 -69 -12 -110 -15 -41 -3 -102 -11 -135 -16 -55
-8 -91 -15 -215 -39 -53 -10 -241 -57 -286 -71 -17 -6 -40 -10 -52 -10 -12 0
-22 -4 -22 -10 0 -5 -14 -10 -30 -10 -17 0 -38 -4 -48 -9 -27 -14 -62 -26
-142 -51 -41 -13 -79 -27 -85 -32 -5 -4 -17 -8 -27 -8 -10 0 -26 -4 -36 -10
-9 -5 -55 -23 -102 -39 -47 -17 -123 -44 -170 -62 -47 -17 -95 -34 -107 -36
-13 -3 -23 -8 -23 -12 0 -4 -17 -13 -37 -20 -38 -13 -153 -64 -185 -82 -10 -5
-25 -9 -33 -9 -8 0 -15 -4 -15 -10 0 -5 -7 -10 -15 -10 -15 0 -59 -19 -110
-47 -18 -10 -71 -34 -162 -74 -18 -8 -33 -17 -33 -21 0 -5 -5 -8 -12 -8 -9 0
-162 -73 -208 -100 -8 -5 -22 -11 -30 -14 -20 -8 -185 -98 -291 -159 -146 -84
-194 -113 -270 -163 -41 -26 -83 -53 -94 -59 -11 -6 -42 -28 -70 -49 -27 -21
-63 -47 -79 -59 -48 -36 -144 -117 -148 -125 -2 -4 -23 -22 -47 -40 -42 -30
-50 -32 -130 -32 -76 0 -88 3 -120 27 -20 14 -43 34 -51 42 -29 31 -71 102
-77 131 -3 17 -9 30 -13 30 -4 0 -15 17 -26 37 -36 71 -254 323 -279 323 -6 0
-71 49 -106 80 -10 8 -35 23 -56 34 -21 10 -45 22 -53 27 -17 10 -156 78 -185
90 -42 18 -120 47 -130 48 -5 1 -28 6 -50 12 -66 18 -79 21 -113 26 -18 3 -35
9 -38 14 -3 5 -20 9 -39 9 -19 0 -37 5 -40 10 -4 6 -25 10 -47 8 l-40 -2 6
-81 c3 -44 10 -107 16 -140 5 -33 14 -89 19 -125 17 -112 75 -350 96 -397 8
-17 15 -35 15 -41 0 -12 85 -219 109 -262 141 -263 276 -423 462 -545 94 -62
129 -118 129 -204 0 -98 -45 -174 -132 -224 -63 -36 -171 -143 -266 -265 -46
-58 -165 -280 -192 -355 -12 -34 -28 -77 -36 -96 -8 -18 -21 -61 -29 -95 -8
-33 -24 -97 -35 -141 -26 -98 -30 -114 -40 -190 -5 -33 -11 -73 -15 -90 -12
-62 -28 -346 -19 -355 5 -5 43 -1 89 10 44 11 94 19 112 20 17 0 34 4 37 9 3
5 29 16 58 25 83 26 234 90 303 128 11 7 29 16 40 22 118 65 289 216 376 333
21 28 43 54 49 58 5 3 10 15 10 26 0 10 4 19 8 19 5 0 25 34 46 75 21 41 41
77 46 80 5 3 11 19 15 35 4 17 11 30 16 30 5 0 9 5 9 10 0 22 65 80 108 97 56
21 147 21 187 0 17 -8 62 -42 101 -74 57 -48 200 -151 257 -185 50 -30 167
-96 187 -106 14 -7 48 -25 75 -41 89 -49 348 -179 440 -222 50 -22 108 -50
130 -61 22 -11 74 -33 115 -49 41 -16 93 -38 115 -49 22 -10 78 -33 125 -50
47 -17 94 -35 105 -40 101 -44 307 -118 430 -156 28 -8 59 -19 70 -24 11 -5
36 -13 55 -19 139 -38 188 -53 205 -60 11 -5 43 -15 70 -21 28 -7 70 -18 95
-25 68 -20 396 -91 460 -100 19 -3 82 -12 140 -20 217 -31 383 -38 620 -25
232 12 254 14 355 30 33 6 103 17 155 26 172 28 200 33 211 39 9 6 68 19 194
42 17 3 35 9 40 13 6 4 26 11 45 15 57 12 360 114 401 135 21 11 43 20 50 20
6 0 33 11 61 25 27 14 54 25 59 25 5 0 55 23 112 52 56 28 134 67 172 86 39
19 97 52 131 74 34 21 64 38 68 38 4 0 22 11 40 25 18 14 36 25 40 25 3 0 29
16 56 35 28 19 74 51 103 72 123 86 283 212 426 336 122 106 471 474 471 497
0 4 -57 50 -127 100 -71 51 -159 116 -198 145 -38 28 -128 94 -200 145 -71 52
-157 115 -191 140 -33 25 -95 70 -137 100 -43 30 -77 57 -77 61 0 3 44 37 98
76 53 38 149 107 212 153 63 46 144 104 180 130 36 26 115 82 175 126 61 44
147 107 192 139 45 33 83 65 83 72 0 30 -410 429 -560 543 -25 19 -47 37 -50
40 -12 13 -139 110 -179 136 -24 16 -54 36 -66 44 -291 197 -541 331 -837 449
-13 5 -39 16 -58 24 -19 8 -87 32 -150 52 -63 21 -119 42 -125 46 -5 5 -18 9
-30 9 -11 0 -47 10 -80 21 -33 11 -78 24 -100 29 -22 4 -65 15 -95 23 -30 8
-77 18 -105 22 -27 5 -54 10 -60 12 -39 13 -197 36 -434 63 -115 13 -598 21
-641 11z m440 -627 c37 -7 101 -67 120 -113 11 -28 12 -50 1 -130 -20 -155
-25 -377 -12 -487 40 -321 82 -509 163 -729 41 -111 126 -302 155 -347 12 -21
23 -41 23 -44 0 -4 30 -57 67 -117 127 -211 315 -436 481 -577 79 -66 95 -102
90 -195 -4 -59 -9 -75 -29 -95 -49 -49 -77 -61 -152 -64 -69 -3 -75 -1 -128
35 -110 74 -335 317 -475 514 -52 74 -110 163 -130 204 -4 7 -29 51 -56 98
-26 46 -48 86 -48 88 0 2 -18 43 -41 92 -23 48 -50 111 -61 138 -11 28 -25 64
-33 80 -50 116 -145 441 -145 500 0 13 -4 26 -8 29 -5 3 -14 51 -21 108 -7 57
-16 128 -22 158 -19 117 -22 427 -5 577 23 189 50 244 141 277 38 14 53 14
125 0z m1683 -539 c119 -31 237 -115 282 -202 11 -21 23 -40 26 -43 3 -3 9
-18 13 -35 21 -90 24 -131 16 -217 -5 -51 -10 -97 -10 -101 0 -5 -4 -5 -10 -2
-5 3 -10 -2 -10 -11 0 -23 -66 -118 -98 -141 -13 -10 -30 -23 -37 -30 -27 -26
-146 -74 -201 -81 -60 -8 -163 1 -199 17 -173 76 -264 184 -294 346 -17 90
-13 138 14 212 59 155 163 251 313 288 76 18 126 18 195 0z"/>
<path d="M4453 2423 c-63 -111 -119 -356 -125 -543 -3 -82 2 -98 29 -95 76 8
187 28 418 76 22 4 75 19 117 33 42 13 92 27 110 31 89 20 401 155 493 214 39
24 75 56 75 64 0 6 -77 17 -160 24 -35 3 -74 11 -84 19 -11 8 -35 14 -53 14
-18 0 -66 9 -106 21 -39 12 -99 25 -131 30 -33 5 -73 16 -89 24 -17 8 -38 13
-48 10 -9 -3 -20 -1 -24 5 -3 5 -17 10 -31 10 -13 0 -24 5 -24 10 0 6 -11 10
-25 10 -14 0 -25 4 -25 9 0 5 -24 12 -52 15 -29 4 -57 11 -63 16 -9 8 -77 24
-150 37 -27 4 -33 0 -52 -34z"/>
<path d="M1700 1876 c0 -3 -202 -575 -215 -607 -5 -14 7 -21 60 -39 36 -12 68
-20 69 -19 2 2 33 89 70 193 36 104 70 195 75 203 5 10 39 -69 106 -248 53
-145 102 -269 109 -275 10 -11 136 -56 136 -50 0 3 204 579 215 607 5 12 -7
21 -53 37 -32 12 -64 22 -69 22 -6 0 -43 -92 -83 -205 -40 -113 -74 -204 -75
-203 -2 2 -47 120 -100 263 -54 143 -102 265 -109 271 -6 6 -37 20 -69 32 -61
23 -67 24 -67 18z"/>
<path d="M8815 1648 c-170 -61 -312 -113 -314 -115 -5 -4 170 -492 179 -498 5
-3 107 29 127 40 1 0 -27 81 -63 180 -35 98 -63 183 -61 188 4 14 156 67 162
56 3 -4 33 -84 66 -176 33 -93 64 -172 68 -176 6 -6 114 26 129 38 1 1 -28 84
-64 185 -51 138 -64 184 -54 190 24 15 149 54 155 49 3 -3 33 -82 67 -175 33
-93 64 -172 67 -177 10 -11 133 33 128 47 -2 6 -35 94 -71 196 -37 102 -73
194 -81 206 -16 25 -74 54 -107 54 -12 -1 -162 -51 -333 -112z"/>
<path d="M8328 1486 c-81 -24 -159 -51 -173 -60 -28 -19 -55 -71 -55 -107 0
-19 108 -408 117 -418 3 -4 133 29 133 35 0 1 -24 87 -54 189 -54 185 -54 186
-33 194 12 5 74 23 137 41 63 18 116 34 118 35 3 2 -38 135 -41 134 -1 0 -68
-20 -149 -43z"/>
<path d="M2325 1459 c-9 -34 -13 -65 -8 -69 4 -5 88 -31 186 -58 98 -28 181
-52 184 -55 10 -10 -8 -47 -23 -47 -9 0 -94 23 -191 51 -97 27 -179 47 -183
42 -11 -13 -60 -196 -60 -226 0 -33 20 -75 47 -99 16 -15 433 -141 441 -134
10 11 112 392 112 422 0 50 -32 99 -78 117 -32 13 -393 117 -405 117 -2 0 -12
-28 -22 -61z m198 -319 c121 -33 125 -37 108 -83 l-10 -25 -123 35 c-68 20
-124 36 -125 37 -6 5 19 76 25 72 4 -2 60 -18 125 -36z"/>
<path d="M2967 1463 c-11 -18 -40 -163 -34 -169 8 -9 120 -34 125 -29 5 4 42
154 42 167 0 7 -26 15 -101 33 -15 4 -29 3 -32 -2z"/>
<path d="M7150 1348 c-157 -28 -286 -52 -287 -53 -3 -1 108 -648 111 -652 1
-1 32 3 69 9 78 13 75 2 47 154 -10 60 -16 111 -12 115 4 3 84 18 177 34 94
15 174 31 179 36 5 4 3 36 -4 73 -11 60 -14 65 -34 61 -71 -17 -347 -61 -351
-55 -2 3 -7 29 -11 58 -6 48 -5 51 17 56 13 3 116 21 228 41 112 19 205 36
207 38 2 1 -2 33 -9 70 -8 50 -15 67 -27 66 -8 -1 -143 -24 -300 -51z"/>
<path d="M7695 1323 c-104 -25 -192 -47 -194 -49 -6 -5 21 -124 29 -129 4 -3
92 15 196 40 194 46 203 46 204 3 0 -10 -3 -18 -6 -18 -16 0 -370 -84 -376
-89 -9 -8 40 -211 58 -239 20 -30 73 -62 104 -62 14 0 116 21 228 47 159 38
202 51 202 64 0 33 -92 404 -105 423 -24 34 -68 56 -110 55 -22 -1 -125 -22
-230 -46z m268 -280 c2 -5 7 -20 11 -35 l6 -26 -127 -31 c-70 -16 -129 -28
-131 -27 -1 2 -5 19 -8 38 l-6 34 108 26 c121 29 141 32 147 21z"/>
<path d="M3080 1096 l-43 -215 20 -38 c26 -52 74 -74 226 -103 119 -22 127
-25 127 -47 0 -29 -4 -29 -160 2 -69 13 -133 25 -142 25 -12 0 -20 -15 -28
-56 -6 -30 -10 -61 -7 -67 3 -7 80 -27 179 -46 172 -34 174 -34 212 -16 21 10
46 31 56 47 19 32 138 613 128 624 -4 3 -34 12 -67 19 l-60 12 -10 -46 c-5
-25 -22 -109 -37 -186 -15 -77 -30 -143 -33 -147 -6 -7 -240 38 -250 47 -4 5
49 300 67 366 3 13 -8 19 -48 28 -92 20 -82 36 -130 -203z"/>
<path d="M6085 1262 c-33 -2 -63 -6 -68 -11 -4 -4 6 -161 23 -350 16 -189 30
-345 30 -348 0 -7 127 1 134 8 3 3 -2 89 -11 192 -9 103 -13 190 -10 194 8 7
245 28 251 22 2 -2 12 -89 21 -194 9 -104 18 -191 19 -192 1 -2 32 0 69 4 52
5 67 9 67 22 0 9 -9 106 -19 217 -20 218 -27 241 -85 271 -25 13 -51 15 -151
9 -66 -4 -136 -9 -156 -12 l-36 -6 -9 88 -9 89 -60 -3z"/>
<path d="M5220 1170 l0 -71 68 3 67 3 3 68 3 67 -71 0 -70 0 0 -70z"/>
<path d="M4577 1148 c-11 -128 -31 -578 -26 -582 3 -3 34 -8 70 -12 l66 -6 8
132 7 132 131 -6 c73 -4 158 -9 190 -12 l57 -6 0 40 c0 22 3 53 6 70 8 38 4
39 -213 48 l-163 6 0 61 0 60 128 -7 c70 -3 178 -9 240 -13 l112 -6 0 72 c0
61 -2 71 -17 71 -10 0 -130 7 -268 15 -137 8 -266 15 -286 15 l-36 0 -6 -72z"/>
<path d="M3686 1154 c-13 -97 -27 -87 167 -113 219 -29 217 -28 217 -55 0 -13
-2 -25 -5 -27 -2 -3 -91 7 -197 22 -106 15 -196 24 -199 20 -8 -8 -29 -164
-29 -215 0 -47 30 -98 66 -115 25 -11 443 -76 449 -69 6 7 55 376 55 413 0 45
-28 98 -61 115 -20 11 -384 69 -435 70 -18 0 -22 -8 -28 -46z m257 -308 c53
-7 99 -15 101 -17 2 -2 1 -19 -1 -38 l-6 -33 -51 6 c-196 24 -206 27 -206 51
0 42 10 54 38 49 15 -2 71 -11 125 -18z"/>
<path d="M5217 1063 c-4 -3 -7 -125 -7 -270 l0 -263 70 0 70 0 0 264 c0 231
-2 265 -16 270 -21 8 -109 8 -117 -1z"/>
<path d="M5588 1061 c-67 -6 -82 -11 -108 -36 -38 -36 -51 -84 -43 -155 7 -70
28 -105 75 -129 33 -16 55 -18 183 -13 l145 5 0 -32 0 -31 -129 0 c-71 0 -131
3 -133 8 -1 4 -33 5 -70 4 -77 -4 -83 -13 -51 -79 30 -64 57 -73 233 -73 85 0
172 5 194 11 79 22 111 86 97 197 -6 52 -13 69 -39 95 l-32 32 -166 0 c-164 0
-165 0 -171 23 -3 13 -3 25 0 28 3 3 64 8 136 11 96 4 131 3 131 -5 0 -8 24
-12 70 -12 64 0 70 2 70 20 0 32 -25 83 -54 110 -26 23 -35 25 -144 26 -64 1
-152 -1 -194 -5z"/>
</g>
</svg>
